<?xml version="1.0" encoding="UTF-8"?>
<svg id="Layer_1" data-name="Layer 1" xmlns="http://www.w3.org/2000/svg" viewBox="0 0 295.75 327.29">
  <defs>
    <style>
      .cls-1 {
        fill: lime;
      }
    </style>
  </defs>
  <polygon class="cls-1" points="11.28 80.43 39.24 98.09 147.45 33.84 255.53 98.09 285.45 80.43 147.45 0 11.28 80.43"/>
  <polygon class="cls-1" points="295.75 147.01 293.92 256.93 264.45 273.95 266.08 161.62 295.75 147.01"/>
  <polygon class="cls-1" points="189.82 206 187.88 311.79 158.42 327.29 160.05 224.94 189.82 206"/>
  <polygon class="cls-1" points="60.82 107.41 88.77 91.71 147.45 127.03 208.45 91.71 234.44 109.37 147.63 158.42 60.82 107.41"/>
  <polygon class="cls-1" points="158.42 177.54 158.42 210.9 214.82 177.54 214.82 302.61 236.89 289.86 236.89 163.32 295.75 131.44 295.75 98.09 158.42 177.54"/>
  <path class="cls-1" d="M117.23,168.36L0,98.07v157.96l117.23,69.16,19.13-20.14v-96.59l-19.13-40.1Zm0,124.44L20.59,236.39v-30.39l96.63,56.4v30.39Zm0-62.28L20.59,174.11v-30.89l96.63,54.45v32.85Z"/>
</svg>